<?xml version="1.0" encoding="UTF-8"?>
<svg xmlns="http://www.w3.org/2000/svg" xmlns:xlink="http://www.w3.org/1999/xlink" viewBox="0 0 116 116">
  <defs>
    <clipPath id="clip-path">
      <path d="M54.2-275.643a1.9,1.9,0,0,1-1.9,1.9,1.9,1.9,0,0,1-1.9-1.9,1.9,1.9,0,0,1,1.9-1.9,1.9,1.9,0,0,1,1.9,1.9" fill="none" clip-rule="evenodd"></path>
    </clipPath>
    <clipPath id="clip-path-2">
      <path d="M66.358-275.643a1.9,1.9,0,0,1-1.9,1.9,1.9,1.9,0,0,1-1.9-1.9,1.9,1.9,0,0,1,1.9-1.9,1.9,1.9,0,0,1,1.9,1.9" fill="none" clip-rule="evenodd"></path>
    </clipPath>
    <clipPath id="clip-path-3">
      <path d="M60.278-275.643a1.9,1.9,0,0,1-1.9,1.9,1.9,1.9,0,0,1-1.9-1.9,1.9,1.9,0,0,1,1.9-1.9,1.9,1.9,0,0,1,1.9,1.9" fill="none" clip-rule="evenodd"></path>
    </clipPath>
  </defs>
  <g id="Layer_2" data-name="Layer 2">
    <path d="M63.125,1.618h0a8.94,8.94,0,0,1,12.8,2.734A8.956,8.956,0,0,0,85.289,8.54a8.973,8.973,0,0,1,10.588,7.728,8.993,8.993,0,0,0,6.859,7.652,9.014,9.014,0,0,1,6.544,11.386,9.029,9.029,0,0,0,3.166,9.794,9.037,9.037,0,0,1,1.369,13.075v0a9.036,9.036,0,0,0-1.071,10.24,9.028,9.028,0,0,1-4.045,12.5,9.021,9.021,0,0,0-5.126,8.919,8.992,8.992,0,0,1-8.755,9.77,8.97,8.97,0,0,0-8.293,6.053,8.954,8.954,0,0,1-11.955,5.347,8.938,8.938,0,0,0-10.026,2.143h0a8.939,8.939,0,0,1-13.085,0,8.939,8.939,0,0,0-10.026-2.143,8.956,8.956,0,0,1-11.957-5.347,8.972,8.972,0,0,0-8.291-6.053,8.992,8.992,0,0,1-8.757-9.77A9.02,9.02,0,0,0,7.3,80.92a9.027,9.027,0,0,1-4.043-12.5,9.043,9.043,0,0,0-1.071-10.24v0A9.036,9.036,0,0,1,3.553,45.1a9.036,9.036,0,0,0,3.168-9.794A9.011,9.011,0,0,1,13.262,23.92a8.99,8.99,0,0,0,6.86-7.652A8.973,8.973,0,0,1,30.71,8.54a8.953,8.953,0,0,0,9.364-4.188,8.942,8.942,0,0,1,12.8-2.734A8.935,8.935,0,0,0,63.125,1.618Z" fill="#0169e1" fill-rule="evenodd"></path>
    <path d="M71.9,77.605H40.632a3.974,3.974,0,1,1,0-7.947H80.579a2.974,2.974,0,1,0,0-5.947H51.053a3.974,3.974,0,0,1,0-7.948H64.947a2.974,2.974,0,1,0,0-5.947h-33a.5.5,0,0,1,0-1h33a3.974,3.974,0,1,1,0,7.947H51.053a2.974,2.974,0,1,0,0,5.948H80.579a3.974,3.974,0,1,1,0,7.947H40.632a2.974,2.974,0,1,0,0,5.947H71.9a.5.5,0,0,1,0,1Z" fill="#43d6b9"></path>
    <path d="M91,31.447H25a.5.5,0,0,0-.5.5V84.053a.5.5,0,0,0,.5.5H91a.5.5,0,0,0,.5-.5V31.947A.5.5,0,0,0,91,31.447Zm-.5,1V43.1a10.923,10.923,0,0,1-4.79-1.191,13.214,13.214,0,0,0-11.41,0,12.225,12.225,0,0,1-10.585,0,13.221,13.221,0,0,0-11.413,0,10.966,10.966,0,0,1-5.292,1.205,10.98,10.98,0,0,1-5.295-1.205,11.969,11.969,0,0,0-5.71-1.295,11.969,11.969,0,0,0-5.71,1.295A10.947,10.947,0,0,1,25.5,43.1V32.447Zm-65,51.106V44.1a11.939,11.939,0,0,0,5.209-1.28,10.993,10.993,0,0,1,5.3-1.2,10.993,10.993,0,0,1,5.3,1.2,11.965,11.965,0,0,0,5.709,1.3,11.954,11.954,0,0,0,5.706-1.3,12.225,12.225,0,0,1,10.585,0,13.221,13.221,0,0,0,11.413,0,12.219,12.219,0,0,1,10.582,0,11.922,11.922,0,0,0,5.2,1.28v39.45Z" fill="#fff"></path>
    <circle cx="80.579" cy="37.158" r="1.737" fill="#43d6b9"></circle>
    <circle cx="85.789" cy="37.158" r="1.737" fill="#43d6b9"></circle>
    <circle cx="75.368" cy="37.158" r="1.737" fill="#43d6b9"></circle>
  </g>
</svg>
